<?xml version="1.0" encoding="utf-8"?>
<!DOCTYPE svg PUBLIC "-//W3C//DTD SVG 1.0//EN" "http://www.w3.org/TR/2001/REC-SVG-20010904/DTD/svg10.dtd">
<svg version="1.0" xmlns="http://www.w3.org/2000/svg" width="353px" height="270px" viewBox="0 0 353 270" preserveAspectRatio="xMidYMid meet">
 <g fill="#fff2e8">
  <path d="M0 135 l0 -135 176 0 176 0 0 135 0 135 -176 0 -176 0 0 -135z m195.5 124.5 c16.8 -4.4 31.8 -18.6 37.6 -35.5 2.8 -8.3 2.9 -20 0.1 -28.2 -6 -17.8 -22.2 -32.6 -39.9 -36.3 -4.5 -1 -13.1 -1.5 -25 -1.5 l-18.3 0 0 -18 0 -18 -9 0 -9 0 0 18 0 18 -43 0 c-23.6 0 -43 0.3 -43 0.8 0 0.4 2.5 3.5 5.5 6.8 9.3 10.5 4.2 9.9 77.8 10.1 72 0.2 69.8 0 78.5 7.8 2.6 2.4 5.9 6.5 7.2 9.1 2.3 4.3 2.5 6 2.5 17.3 0 12 -0.1 12.8 -2.8 17.3 -3.6 6.2 -8.4 10.8 -14.4 13.8 -4.2 2.2 -6.1 2.5 -15.8 2.5 -9.4 0 -11.8 -0.3 -16.2 -2.4 -6.9 -3.1 -13.4 -10.2 -16.2 -17.7 -3.2 -8.4 -2.7 -22.6 1 -30.2 l2.6 -5.2 -11.9 0 -11.8 0 0 10.4 c0 20.8 4.2 33.4 15 45 14 14.9 31.1 20.6 48.5 16.1z m-71.3 -25.5 c-0.2 -0.8 -1 -4.6 -1.9 -8.5 -0.8 -3.8 -1.6 -7.1 -1.7 -7.3 -0.2 -0.1 -7.5 -0.1 -16.2 0 l-15.9 0.3 5 5.1 c7.5 7.5 19.2 12.5 28 12.1 2.1 -0.2 2.9 -0.6 2.7 -1.7z m-3.2 -37 l0 -9 -27.1 0 -27.1 0 2.4 2.8 c2.8 3.5 9.4 8.6 13.8 10.8 6.2 3.1 12.6 4.2 25.3 4.3 l12.7 0.1 0 -9z m161.9 -46.9 l5 -9.9 -3.9 -0.4 c-2.6 -0.2 -3.6 0 -3 0.6 1.9 1.9 1.1 9.5 -1.5 14.6 -1.4 2.8 -2.3 5 -2 5 0.3 0 2.7 -4.5 5.4 -9.9z m-60.9 -21.1 c0 -15.3 -0.2 -18 -1.5 -18 -1.2 0 -1.5 1.6 -1.5 8 l0 8 -5.7 0.1 -5.8 0.1 4.5 0.9 c6.3 1.2 8.3 4 7.7 10.3 -0.5 5.4 0 8.6 1.4 8.6 0.5 0 0.9 -8.1 0.9 -18z m37 0 c0 -15.3 -0.2 -18 -1.5 -18 -1.2 0 -1.5 1.6 -1.5 8 l0 8 -5.7 0 c-3.2 0 -6.3 0.4 -7 0.8 -0.6 0.4 1.4 0.7 4.4 0.7 7.1 0 8.5 1.7 8.2 10 -0.2 8.1 -0.1 8.5 1.6 8.5 1.3 0 1.5 -2.7 1.5 -18z m-91 15.1 c-0.5 -1.1 -1 -5.1 -1 -9 0 -5.9 -0.3 -7.1 -1.6 -7.1 -1.4 0 -1.6 0.9 -1.2 6.5 0.3 3.6 1.3 7.6 2.2 9 1.9 2.9 3.1 3.4 1.6 0.6z m16.6 -2.7 c2 -4.7 1.9 -13.4 -0.1 -13.4 -1.2 0 -1.5 1.5 -1.5 7.8 0 4.9 -0.5 8.3 -1.2 9.1 -1.1 1.1 -1 1.2 0.1 0.6 0.7 -0.4 1.9 -2.2 2.7 -4.1z m54.8 1.9 c-1.8 -3.6 -1.8 -8.1 0.1 -11.7 1.4 -2.6 1.4 -2.8 -0.1 -1.5 -1 0.8 -2.3 2.7 -3 4.4 -1.2 3 -0.3 6.3 2.8 10.3 1.7 2 1.8 1.4 0.2 -1.5z m-146.3 -1.2 c27.1 -10.4 29.6 -47.7 4.2 -60.3 l-6.7 -3.3 -24.3 -0.5 -24.3 -0.5 -3.2 -3.3 c-3 -2.9 -3.3 -3.8 -3.3 -9.2 0.1 -6.4 1.5 -8.9 7 -11.8 2.5 -1.3 6.4 -1.5 24.6 -1.3 17.7 0.2 21.8 0 22.7 -1.2 2 -2.4 -0.7 -3.6 -8.8 -3.9 -7 -0.3 -7.5 -0.5 -7.8 -2.7 -0.2 -1.2 -0.1 -3.4 0.2 -4.7 0.6 -2.1 1.2 -2.4 5.5 -2.4 3 0 5.3 -0.5 6 -1.4 2.3 -2.8 -2.2 -3.5 -23 -3.7 -17.2 -0.2 -21.2 0 -25.7 1.5 -15.9 5.4 -25.4 23.1 -20.8 39 3.1 10.5 8.9 17.6 18.1 22 4.6 2.2 6.7 2.4 27.4 3 24.1 0.7 27.2 1.4 30.9 6.1 2.9 3.6 3 10.8 0.2 15.3 -3.3 5.4 -6.7 6.2 -26.3 6.2 -12.6 0 -17.8 0.4 -19.1 1.3 -3.1 2.3 0.3 3.6 10.5 3.9 l9.4 0.3 0.3 3.3 c0.5 4.7 -1.2 6.2 -6.8 6.2 -2.9 0 -5.2 0.6 -5.9 1.4 -2.4 2.9 1.7 3.7 17.9 3.3 12.9 -0.3 16.4 -0.8 21.1 -2.6z m109.4 -4.7 c0 -6.5 0 -6.5 -1.8 -4.2 -1.3 1.5 -1.7 3.1 -1.3 5.2 0.5 2.3 2.2 5.6 3 5.6 0 0 0.1 -2.9 0.1 -6.6z m91.4 -8.9 c0 -0.5 -0.8 0.6 -1.9 2.5 -1.1 1.9 -1.9 4 -1.9 4.5 0 0.6 0.8 -0.6 1.9 -2.5 1.1 -1.9 1.9 -3.9 1.9 -4.5z m-261 0.6 c1.2 -0.8 1.2 -1.2 0.2 -2.5 -1.6 -2 -3.1 -2 -5.6 -0.3 -3.5 2.6 1.6 5.2 5.4 2.8z m275.3 -47.3 c2.6 -5.1 7.8 -15.3 11.6 -22.5 6.5 -12.4 6.8 -13.3 4.7 -13.3 -1.9 0 -2.9 1.5 -6.1 8.5 -3.8 8.4 -3.9 8.5 -7.4 8.5 -3.4 -0.1 -3.6 -0.3 -7.5 -8.5 -3.2 -6.8 -4.4 -8.4 -6.2 -8.4 -1.3 -0.1 -2.3 0.1 -2.3 0.4 0 0.3 2.7 5.3 6 11.1 4.1 7.3 6 11.6 6 14 0 2 -1.6 6.7 -4 11.4 -3.9 7.8 -4 8 -1.7 8 1.8 0 3.1 -1.6 6.9 -9.2z m-176.2 -7.8 c0.4 0 0.6 -0.9 0.3 -2 -0.4 -1.4 -1.4 -2 -3.4 -2 l-2.9 0 0 -10.5 0 -10.5 3.5 0 c2.4 0 3.5 -0.5 3.5 -1.5 0 -1.1 -1.1 -1.5 -4.1 -1.5 l-4.1 0 0.7 -6.5 0.7 -6.5 -3.1 0 -3.1 0 0 6.5 c0 6.3 -0.1 6.5 -2.5 6.5 -1.6 0 -2.5 0.6 -2.5 1.5 0 0.9 0.9 1.5 2.4 1.5 2.4 0 2.4 0.2 2.8 9.9 0.2 8.2 0.6 10.3 2.3 12.1 2.3 2.6 5.4 4.1 7.3 3.4 0.8 -0.2 1.7 -0.4 2.2 -0.4z m37.1 0 c1.9 -0.5 4.8 -2.4 6.5 -4.1 2.8 -2.9 2.9 -3.5 3.2 -13.5 l0.4 -10.4 -3.1 0 -3.1 0 0 10.6 c0 13.9 -0.3 14.4 -9 14.4 -9.3 0 -10 -1 -10 -14.7 l0 -10.3 -3.1 0 -3.2 0 0.5 9.9 c0.6 11.6 1.8 14.3 8.1 17.2 4.8 2.1 7.6 2.3 12.8 0.9z m42.7 -0.7 l3.7 -1.7 -5.4 -0.6 c-7.1 -0.8 -9.1 -3.2 -9.1 -11 0 -4.9 0.4 -6.1 2.6 -8.4 2.3 -2.2 3.5 -2.6 8.6 -2.6 5 0 6.3 0.4 8.5 2.6 2.3 2.3 2.5 3.1 2.1 9.1 -0.3 5.4 -0.8 6.9 -2.7 8.4 l-2.3 1.9 2.6 0 c1.6 0 2.6 0.5 2.6 1.5 0 0.9 0.9 1.5 2.5 1.5 l2.5 0 0 -25.5 0 -25.5 -2.5 0 -2.5 0 0 11 0 11 -7.7 0 c-6.2 0 -8.6 0.5 -11.8 2.3 -4.2 2.4 -8.5 8.6 -8.5 12.5 0 5.8 6.3 13.3 12.8 15.1 0.1 0.1 1.9 -0.7 4 -1.6z m49 0 l3.7 -1.7 -5.4 -0.6 c-7.1 -0.8 -9.1 -3.2 -9.1 -11 0 -4.9 0.4 -6.1 2.6 -8.4 2.3 -2.2 3.5 -2.6 8.6 -2.6 5 0 6.3 0.4 8.5 2.6 2.3 2.3 2.5 3.1 2.1 9.1 -0.3 5.4 -0.8 6.9 -2.7 8.4 l-2.3 1.9 2.6 0 c1.6 0 2.6 0.5 2.6 1.5 0 0.9 0.9 1.5 2.5 1.5 l2.5 0 0 -25.5 0 -25.5 -2.5 0 -2.5 0 0 11 0 11 -7.7 0 c-6.2 0 -8.6 0.5 -11.8 2.3 -4.2 2.4 -8.5 8.6 -8.5 12.5 0 5.8 6.3 13.3 12.8 15.1 0.1 0.1 1.9 -0.7 4 -1.6z m-156.8 -38.4 c0 -1.5 -4.3 -2.8 -6.2 -1.7 -2.4 1.2 -2.2 2.7 0.5 3.7 2.3 0.9 5.7 -0.3 5.7 -2z"/>
 </g>
 <g fill="#ff5700">
  <path d="M167 261.7 c-8.8 -3 -15.7 -7.6 -23 -15.3 -11.3 -12.1 -15 -24 -15 -48 l0 -13.4 17 0 c9.4 0 17 0.3 17 0.6 0 0.3 -1.6 2.6 -3.5 5.1 -9.3 12.1 -8.3 29.1 2.2 40.4 6.2 6.7 12.8 9.4 22.8 9.3 6.5 0 8.9 -0.4 12.8 -2.4 6 -3 10.8 -7.6 14.4 -13.8 2.5 -4.3 2.8 -5.6 2.8 -14.3 0 -11.5 -2.1 -16.6 -9.7 -23.4 -8.7 -7.8 -6.5 -7.6 -75.4 -7.5 -64 0 -68.5 -0.2 -74.6 -4.4 -4.1 -2.7 -16.1 -17.4 -15.3 -18.7 0.4 -0.5 18.3 -0.9 45.1 -0.9 l44.4 0 0 -18 0 -18 12 0 12 0 0 18 0 18 18.3 0 c11.9 0 20.5 0.5 25 1.5 17.6 3.7 33.7 18.3 40 36.3 2.9 8.5 2.9 25.4 -0.2 34.2 -5.9 17 -20.8 31.1 -37.6 35.5 -9 2.3 -23.5 2 -31.5 -0.8z"/>
  <path d="M111.5 238 c-9.8 -2 -17.8 -7 -24.6 -15.4 -2.7 -3.3 -4.9 -6.4 -4.9 -6.8 0 -0.5 9.7 -0.8 21.6 -0.8 11.8 0 21.3 0.4 21 0.8 -0.8 1.4 2.2 14.2 4.3 18.3 1.1 2.1 1.7 4 1.3 4.2 -1.3 0.8 -14.7 0.5 -18.7 -0.3z"/>
  <path d="M87.9 207.5 c-6 -1.6 -10.2 -3.7 -15.3 -7.6 -5.1 -3.9 -12 -12.5 -11.1 -13.9 0.4 -0.6 11.8 -1 31.6 -1 l30.9 0 0 12 0 12 -15.7 -0.1 c-9.4 0 -17.7 -0.6 -20.4 -1.4z"/>
  <path d="M298.6 82.8 l5.6 -11.3 -8 -14.2 -8.1 -14.3 7.2 0.1 7.2 0 4 8.4 c2.2 4.6 4.2 8.4 4.5 8.5 0.3 0 2.3 -3.8 4.4 -8.5 l3.8 -8.5 6.9 0 6.9 0 -8.6 16.3 c-4.7 8.9 -10.6 20.4 -13.2 25.5 l-4.7 9.2 -6.7 0 -6.8 0 5.6 -11.2z"/>
  <path d="M123.5 77.1 c-4.9 -2.1 -6 -4.8 -6.3 -15.2 -0.4 -9.7 -0.4 -9.9 -2.8 -9.9 -2.2 0 -2.4 -0.4 -2.4 -4.5 0 -4.1 0.2 -4.5 2.5 -4.5 2.4 0 2.5 -0.2 2.5 -6.5 l0 -6.5 6.1 0 6.1 0 -0.4 6.5 -0.3 6.5 3.8 0 3.7 0 0 4.5 c0 4.5 0 4.5 -3.5 4.5 l-3.5 0 0 7.5 0 7.5 2.9 0 c2.5 0 3 0.5 3.9 4.2 0.7 2.5 0.7 4.7 0.2 5.2 -1.2 1.2 -10.1 1.8 -12.5 0.7z"/>
  <path d="M153.3 76.1 c-6.7 -3.1 -7.7 -5.5 -8.1 -20.3 l-0.4 -12.8 6.1 0 6.1 0 0 10.3 c0 12.4 1.1 14.7 7 14.7 5.3 0 6 -1.6 6 -14.4 l0 -10.6 6.3 0 6.2 0 -0.5 13.4 c-0.5 13.3 -0.5 13.5 -3.4 16.5 -1.7 1.7 -4.6 3.6 -6.5 4.1 -5.7 1.6 -14.2 1.2 -18.8 -0.9z"/>
  <path d="M203 77.3 c-13.4 -5 -15 -25.9 -2.5 -33 3.2 -1.8 5.6 -2.3 11.8 -2.3 l7.7 0 0 -11 0 -11 5.8 0 5.7 0 -0.3 28.5 -0.3 28.5 -5.9 0 c-4.9 0 -5.8 -0.3 -5.4 -1.5 0.8 -1.9 0.6 -1.9 -4.1 0.5 -3.8 1.9 -9.3 2.5 -12.5 1.3z m13.9 -11 c1.2 -1 2.4 -3.5 2.7 -5.5 0.5 -3 0.2 -4.1 -1.9 -6.2 -3.4 -3.4 -7.6 -3.4 -11.1 0 -3.4 3.4 -3.4 7.7 -0.1 10.9 2.9 3 7.3 3.3 10.4 0.8z"/>
  <path d="M252 77.3 c-13.4 -5 -15 -25.9 -2.5 -33 3.2 -1.8 5.6 -2.3 11.8 -2.3 l7.7 0 0 -11 0 -11 5.8 0 5.7 0 -0.3 28.5 -0.3 28.5 -5.9 0 c-4.9 0 -5.8 -0.3 -5.4 -1.5 0.8 -1.9 0.6 -1.9 -4.1 0.5 -3.8 1.9 -9.3 2.5 -12.5 1.3z m13.9 -11 c1.2 -1 2.4 -3.5 2.7 -5.5 0.5 -3 0.2 -4.1 -1.9 -6.2 -3.4 -3.4 -7.6 -3.4 -11.1 0 -3.4 3.4 -3.4 7.7 -0.1 10.9 2.9 3 7.3 3.3 10.4 0.8z"/>
 </g>
 <g fill="#000000">
  <path d="M271 162.6 c0 -0.3 1.8 -3.8 4 -7.8 2.2 -4 4 -7.8 4 -8.5 0 -0.6 -2.5 -5.5 -5.5 -10.8 -3 -5.4 -5.5 -9.9 -5.5 -10.1 0 -0.2 2.2 -0.4 4.9 -0.4 l4.8 0 3.2 6 c1.8 3.3 3.4 6 3.7 6 0.2 0 1.6 -2.7 3.1 -6 l2.6 -6 5.2 0 5.3 0 -5 9.3 c-2.8 5 -7.2 13.6 -9.9 19 l-4.9 9.7 -5 0 c-2.8 0 -5 -0.2 -5 -0.4z"/>
  <path d="M168.3 149.9 c-5.1 -1.5 -6.7 -4.8 -7.1 -15.5 l-0.4 -9.4 4.6 0 4.6 0 0 7.5 c0 6.2 0.4 7.9 2 9.5 2.4 2.4 2.9 2.4 5.8 0.4 2 -1.3 2.2 -2.4 2.2 -9.5 l0 -7.9 4.5 0 4.5 0 0 8.3 c0 10.2 -1.9 14.7 -7 16.4 -4.1 1.4 -9.3 1.5 -13.7 0.2z"/>
  <path d="M203.5 149.6 c-5 -2.2 -6.8 -5.1 -7.3 -11.5 -0.4 -5.6 -0.2 -6.1 3.1 -9.7 3.2 -3.5 3.9 -3.8 10.1 -4.2 l6.6 -0.4 0 -7.8 0 -7.8 4.6 -0.4 c2.5 -0.2 4.6 -0.2 4.7 -0.1 0.1 0 0.1 9.6 -0.1 21.2 l-0.3 21.1 -4.4 0 c-3.4 0 -4.3 -0.3 -3.9 -1.4 0.4 -1.1 -0.3 -1 -3.2 0.5 -4.4 2.2 -5.8 2.3 -9.9 0.5z m12.3 -9.8 c1 -2.1 1 -3.3 0.2 -4.8 -3 -5.5 -10.9 -3.5 -11 2.7 0 5.6 8.3 7.3 10.8 2.1z"/>
  <path d="M239.3 149.5 c-3.5 -1.5 -7.3 -7.7 -7.3 -12 0 -8.2 6 -13.5 15.3 -13.5 l5.7 0 0 -7.9 0 -7.9 4.1 -0.4 c2.2 -0.2 4.2 -0.2 4.5 0.1 0.2 0.2 0.4 9.8 0.4 21.3 l0 20.8 -4.4 0 c-2.4 0 -4.6 -0.5 -4.8 -1.1 -0.2 -0.6 -1.4 -0.5 -3.3 0.5 -3.6 1.9 -6 1.9 -10.2 0.1z m12.1 -8.1 c1.9 -1.9 2.1 -5.4 0.3 -7.8 -1.6 -2.3 -6.3 -2.4 -8.4 -0.3 -1.9 1.8 -2 6.1 -0.3 8.2 1.6 2 6.4 1.9 8.4 -0.1z"/>
  <path d="M51.3 146.5 c-2.7 -1.9 -3 -5.6 -0.5 -7.8 0.9 -0.8 3.7 -1.6 6.2 -1.8 4.7 -0.3 7.4 -1.5 6.4 -3 -0.3 -0.5 -4.8 -0.9 -9.9 -0.9 -9 0 -9.5 -0.1 -11.1 -2.5 -2.1 -3.2 -0.7 -7.2 2.8 -7.9 1.3 -0.3 10.2 -0.7 19.8 -0.9 11.1 -0.3 18.4 -0.8 19.8 -1.6 2.6 -1.4 6.2 -6.8 6.2 -9.3 0 -2.6 -4.7 -7.6 -8.3 -8.7 -1.8 -0.5 -13.1 -1.3 -25.2 -1.6 -20.4 -0.7 -22.4 -0.9 -27 -3.1 -13.4 -6.4 -20.2 -19.1 -19.3 -36 0.8 -15.1 8.8 -26.5 22 -31.1 4.7 -1.6 8.1 -1.8 28.7 -1.5 12.8 0.1 24.1 0.7 25.1 1.2 2.8 1.5 3.4 4.7 1.6 7.5 -1.4 2.1 -2.4 2.5 -6.6 2.5 -2.8 0 -5 0.5 -5 1 0 0.6 0 1.3 0 1.8 0 0.4 3.5 0.9 7.7 1.2 7.1 0.5 7.9 0.7 9.2 3.1 1.3 2.4 1.3 2.9 -0.2 5.3 l-1.8 2.6 -21.9 0 c-17.3 -0.1 -22.4 0.2 -24.7 1.3 -7.2 3.8 -8.6 9.8 -3.4 15 l3.1 3.2 24.3 0.5 24.3 0.5 6.7 3.3 c14 6.9 20.9 22.8 17.3 40.1 -1.9 8.9 -5 14.6 -11.2 20 -8.1 7.1 -13.1 8.4 -34.4 8.8 -15.9 0.4 -18.8 0.2 -20.7 -1.2z"/>
  <path d="M26 133.3 c-4.1 -1.5 -5.1 -6.2 -2 -9.3 4.3 -4.3 14 -1.8 14 3.6 -0.1 4.7 -6.3 7.7 -12 5.7z"/>
  <path d="M95.3 40 c-4.6 -1.9 -3.7 -9.4 1.3 -10.6 2.9 -0.7 8.2 0.1 10.1 1.7 2.1 1.8 1.6 6.6 -0.9 8.3 -2.5 1.7 -7 2 -10.5 0.6z"/>
 </g>
</svg>